<svg xmlns:x="http://ns.adobe.com/Extensibility/1.0/" xmlns:i="http://ns.adobe.com/AdobeIllustrator/10.0/" xmlns:graph="http://ns.adobe.com/Graphs/1.0/" xmlns="http://www.w3.org/2000/svg" xmlns:xlink="http://www.w3.org/1999/xlink" version="1.1" x="0px" y="0px" viewBox="0 0 64 64" enable-background="new 0 0 64 64" xml:space="preserve"><metadata><sfw xmlns="http://ns.adobe.com/SaveForWeb/1.0/"><slices></slices><sliceSourceBounds height="16385" width="16389" x="-8165" y="-8161" bottomLeftOrigin="true"></sliceSourceBounds></sfw></metadata><g><g><path d="M18,39h-8c-0.552,0-1,0.447-1,1v14c0,0.553,0.448,1,1,1h8c0.552,0,1-0.447,1-1V40C19,39.447,18.552,39,18,39z"></path><path d="M30,35h-8c-0.552,0-1,0.447-1,1v18c0,0.553,0.448,1,1,1h8c0.552,0,1-0.447,1-1V36C31,35.447,30.552,35,30,35z"></path><path d="M42,29h-8c-0.553,0-1,0.448-1,1v24c0,0.553,0.447,1,1,1h8c0.553,0,1-0.447,1-1V30C43,29.448,42.553,29,42,29z"></path><path d="M54,21h-8c-0.553,0-1,0.448-1,1v32c0,0.553,0.447,1,1,1h8c0.553,0,1-0.447,1-1V22C55,21.448,54.553,21,54,21z"></path><path d="M10,31c16.165,0,30.143-10.968,36.729-18.269V16c0,0.552,0.447,1,1,1s1-0.448,1-1v-6c0-0.021-0.011-0.037-0.012-0.057    c-0.004-0.07-0.022-0.135-0.041-0.202c-0.017-0.061-0.029-0.12-0.056-0.175c-0.026-0.054-0.064-0.1-0.101-0.148    c-0.042-0.058-0.083-0.113-0.136-0.16c-0.016-0.014-0.022-0.032-0.038-0.044c-0.033-0.026-0.074-0.034-0.109-0.055    c-0.061-0.036-0.118-0.07-0.186-0.093c-0.066-0.022-0.131-0.032-0.199-0.04C47.81,9.02,47.772,9,47.729,9H42c-0.553,0-1,0.448-1,1    s0.447,1,1,1l3.591,0C39.424,18.017,25.777,29,10,29c-0.552,0-1,0.448-1,1S9.448,31,10,31z"></path></g></g></svg>