<svg xmlns="http://www.w3.org/2000/svg" xmlns:xlink="http://www.w3.org/1999/xlink" version="1.1" x="0px" y="0px" viewBox="0 0 100 100" enable-background="new 0 0 100 100" xml:space="preserve"><g><path d="M83.617,24.015c-2.4-1.105-5.379,0.162-6.897,2.821c-0.009-0.018-0.325,0.597-0.908,1.635L67.9,24.066l-1.102,1.98   l7.873,4.384c-0.836,1.39-1.912,3.069-3.189,4.856l-7.677-4.271l-1.104,1.976l7.421,4.131c-0.493,0.639-1.004,1.284-1.542,1.926   c-0.83,0.979-1.727,1.934-2.653,2.821l-6.084-3.39L58.74,40.46l5.387,2.999c-1.291,1.036-2.598,1.896-3.852,2.424   c-1.377,0.6-2.615,0.805-3.664,0.747c-0.262-0.02-0.514-0.042-0.759-0.091l-1.238-0.22c-0.634-0.102-1.224-0.167-1.788-0.216   c-1.16-1.339-2.189-3.79-2.127-6.966c0-0.966,0.107-1.979,0.26-3.01l6.26,3.487l1.101-1.983l-6.92-3.855   c0.407-1.75,0.959-3.512,1.594-5.184c0.102-0.281,0.217-0.551,0.324-0.825l7.685,4.274l1.102-1.979l-7.905-4.404   c0.87-1.974,1.761-3.749,2.548-5.212l8.148,4.542l1.103-1.983l-8.153-4.537c0.792-1.375,1.312-2.18,1.293-2.18   c1.485-2.735,1.493-5.673-0.131-6.753c-1.632-1.084-4.477,0.399-6.085,3.359c0,0.007-0.894,1.64-2.157,4.326   c-1.252,2.689-2.871,6.44-4.123,10.758c-1.224,4.302-2.156,9.274-1.327,14.148c0.249,1.472,0.717,2.908,1.331,4.226   c-2.035,0.347-4.249,1.034-6.4,2.048c-4.405,2.069-8.377,5.451-11.48,8.888c-3.126,3.438-5.498,6.929-7.131,9.508   c-1.631,2.585-2.534,4.261-2.541,4.261c-0.805,1.49-1.013,3.092-0.714,4.431c0.297,1.344,1.089,2.396,2.238,3.058   c1.152,0.662,2.567,0.561,3.814,0.003c1.259-0.561,2.37-1.579,3.11-2.936c0.003,0.007,0.746-1.681,2.103-4.21l8.698,4.852   l1.103-1.983l-8.697-4.848c0.93-1.607,2.055-3.394,3.378-5.196l8.707,4.851l1.103-1.983l-8.395-4.677   c0.116-0.146,0.219-0.292,0.342-0.438c1.151-1.392,2.444-2.705,3.814-3.876l6.534,3.637l1.098-1.978L41.63,56.59   c1.238-0.875,2.521-1.594,3.813-2.11c1.724-0.705,3.438-1.046,4.983-1.127c0.415-0.018,0.818-0.018,1.203-0.002   c0.921,1.632,1.787,3.908,2.018,6.666c0.095,0.998,0.087,2.059,0.031,3.139l-4.79-2.67l-1.107,1.979l5.666,3.159   c-0.276,1.941-0.752,3.916-1.358,5.796c-0.025,0.089-0.059,0.167-0.086,0.252l-6.688-3.723l-1.099,1.982l7.021,3.913   c-0.76,2.021-1.595,3.87-2.384,5.468l-7.544-4.203l-1.101,1.979l7.613,4.244c-1.214,2.276-2.078,3.675-2.072,3.675   c-0.776,1.354-1.184,2.78-1.191,4.027c-0.013,1.234,0.394,2.309,1.257,2.774c0.856,0.464,1.914,0.403,3.017-0.168   c1.102-0.566,2.226-1.648,3.062-3.102c-0.01-0.005,0.972-1.795,2.331-4.757c1.346-2.96,3.063-7.112,4.202-11.884   c1.146-4.739,1.601-10.224,0.414-15.07c-0.238-1-0.555-1.953-0.906-2.863c0.602-0.025,1.222-0.07,1.858-0.178   c1.968-0.308,4.02-1.045,5.946-2.066c3.872-2.045,7.271-5.118,10.097-8.137c5.624-6.085,9.181-12.026,9.227-12.002   C86.752,28.608,86.03,25.119,83.617,24.015z"></path></g></svg>