<svg xmlns:dc="http://purl.org/dc/elements/1.1/" xmlns:cc="http://creativecommons.org/ns#" xmlns:rdf="http://www.w3.org/1999/02/22-rdf-syntax-ns#" xmlns:svg="http://www.w3.org/2000/svg" xmlns="http://www.w3.org/2000/svg" xmlns:sodipodi="http://sodipodi.sourceforge.net/DTD/sodipodi-0.dtd" xmlns:inkscape="http://www.inkscape.org/namespaces/inkscape" version="1.1" x="0px" y="0px" viewBox="0 0 100 100"><g transform="translate(0,-952.36218)"><path d="m 48.524393,961.41465 c 7.52666,0.0382 17.53753,2.12048 25.65625,5.68674 2.36935,0.86123 2.9236,1.55113 3.46875,3.53072 1.43319,5.29406 2.70862,11.14686 3.75,15.99785 1.53668,6.93371 3.54174,13.46724 3.59375,20.71594 0,7.4144 -0.55215,12.4875 -2.4375,16.9978 0.29823,-3.9904 0.60009,-7.7568 -3.5625,-11.9984 2.82691,10.1959 1.92001,12.9929 0,23.778 -0.89655,2.8188 -3.59528,3.1865 -6.0625,3.2183 -14.0289,1.0528 -28.54646,2.2922 -42.78125,3.9683 -6.72741,-2.9168 -10.49079,-5.7865 -12.5625,-9.1238 -1.13084,-1.8217 -1.78326,-3.8426 -2.15625,-6.1554 3.69971,-0.4384 7.88676,-0.9093 9.21875,-2.7184 9.69357,5.2276 22.12202,6.0012 26.34375,0.031 -11.40605,6.1137 -32.00493,-1.9185 -34.40625,-11.2173 0.95607,-2.2485 2.34036,-4.482 4.15625,-6.4679 3.83038,-4.1889 9.52083,-7.3115 17.25,-7.3115 6.61829,-0.018 11.92393,4.225 16.12495,8.5614 -1.56758,10.8861 0.64953,14.3444 6.875,18.435 -10.84558,-10.8362 -3.21538,-27.29 4.7812,-37.36993 0.14042,-0.17574 0.21892,-0.39998 0.21875,-0.62492 l 0,-4.40566 c 1.74855,-1.04201 1.88768,-2.45183 2,-4.0932 3.19111,0.12244 6.93638,-0.42642 7,-3.49952 -10.01647,5.08207 -8,-3.99947 -9,-3.99947 -1,0 -0.70865,4.53346 -0.96133,5.05267 -0.18275,0.63407 -0.66934,1.31233 -1.38242,1.94639 1.26813,-0.31317 2.18156,-0.85805 2.3125,0.37495 0.10913,1.25844 -0.18273,2.58104 -1.1563,2.62465 -1.76774,-0.008 -3.21846,-0.0562 -4.8125,-0.24997 4e-4,-6.76137 0.0284,-8.80554 2,-12.74828 -2.9135,0 -3.94319,4.74339 -4,12.34209 -1.05997,-0.36508 -2.02099,-1.0787 -3,-1.65598 3e-4,-6.70534 0.0176,-8.77435 1,-13.68566 -2.72463,4.54043 -2.97704,7.54292 -3,12.52957 l -3,-1.74977 c 0.11351,-6.11504 1.06249,-9.09247 2,-13.77939 -3.37505,4.21822 -3.90022,8.43632 -3.9375,12.65454 l -2.125,-1.24983 c -0.39925,-2.29511 -0.39385,-5.22994 0.0625,-7.96768 0.59982,-2.60575 1.16047,-4.72621 2.5314,-6.37415 z m 0.6875,18.56 4.5625,2.65589 c -1.20362,1.26698 -2.73986,1.85668 -3.9375,1.12485 -0.79096,-1.34722 -0.80187,-2.37919 -0.625,-3.78074 z m -33.75,37.68245 c 2.03638,2.7521 4.84535,5.1003 8,6.9678 -1.43309,0.9262 -3.5018,1.3048 -8.3125,0.8124 -0.21447,-2.7134 -0.24263,-5.32 0.3125,-7.7802 z" style="text-indent:0;text-transform:none;direction:ltr;block-progression:tb;baseline-shift:baseline;color:#000000;enable-background:accumulate;" fill="#000000" fill-opacity="1" stroke="none" marker="none" visibility="visible" display="inline" overflow="visible"></path></g></svg>