<svg xmlns="http://www.w3.org/2000/svg" id="instagram-with-circle" viewBox="0 0 20 20" width="64" height="64"><path d="M13 10c0 1.657-1.343 3-3 3s-3-1.343-3-3c0-.17.018-.338.05-.5H6v3.997c0 .278.225.503.503.503h6.995c.277 0 .502-.225.502-.503V9.5h-1.05c.032.162.05.33.05.5zm-3 2c1.104 0 2-.896 2-2s-.896-2-2-2-2 .896-2 2 .896 2 2 2zm2.4-4.1h1.2c.165 0 .3-.135.3-.3V6.4c0-.165-.135-.3-.3-.3h-1.2c-.166 0-.3.135-.3.3v1.2c0 .165.135.3.3.3zM10 .4C4.698.4.4 4.698.4 10s4.298 9.6 9.6 9.6 9.6-4.298 9.6-9.6S15.302.4 10 .4zm5 13.49c0 .61-.5 1.11-1.11 1.11H6.11C5.5 15 5 14.5 5 13.89V6.11C5 5.5 5.5 5 6.11 5h7.78C14.5 5 15 5.5 15 6.11v7.78z"/></svg>